HIERARCHY
ROOT joint_Root
{
	OFFSET 0.0 0.0 0.0
	CHANNELS 6 Xposition Yposition Zposition Zrotation Xrotation Yrotation 
	JOINT Hips
	{
		OFFSET 4.5925 91.4895 -427.239
		CHANNELS 6 Xposition Yposition Zposition Zrotation Xrotation Yrotation 
		JOINT Spine
		{
			OFFSET 15.7357 0.0 0.0
			CHANNELS 6 Xposition Yposition Zposition Zrotation Xrotation Yrotation 
			JOINT Chest
			{
				OFFSET 8.98455 -0.406207 0.0
				CHANNELS 6 Xposition Yposition Zposition Zrotation Xrotation Yrotation 
				JOINT Neck
				{
					OFFSET 16.3773 0.0 0.0
					CHANNELS 6 Xposition Yposition Zposition Zrotation Xrotation Yrotation 
					JOINT Head
					{
						OFFSET 6.45672 0.0 0.0
						CHANNELS 6 Xposition Yposition Zposition Zrotation Xrotation Yrotation 
						End Site
						{
							OFFSET 0.0 0.0 0.0
						}
					}
				}
				JOINT Shoulder_L
				{
					OFFSET 12.9942 -0.242716 4.98039
					CHANNELS 6 Xposition Yposition Zposition Zrotation Xrotation Yrotation 
					JOINT UpperArm_L
					{
						OFFSET 5.34809 0.0 0.0
						CHANNELS 6 Xposition Yposition Zposition Zrotation Xrotation Yrotation 
						JOINT LowerArm_L
						{
							OFFSET 24.3286 1.87007e-05 0.0
							CHANNELS 6 Xposition Yposition Zposition Zrotation Xrotation Yrotation 
							JOINT Hand_L
							{
								OFFSET 22.2916 0.0 0.0
								CHANNELS 6 Xposition Yposition Zposition Zrotation Xrotation Yrotation 
								End Site
								{
									OFFSET 0.0 0.0 0.0
								}
							}
						}
					}
				}
				JOINT Shoulder_R
				{
					OFFSET 12.9945 -0.242716 -4.98039
					CHANNELS 6 Xposition Yposition Zposition Zrotation Xrotation Yrotation 
					JOINT UpperArm_R
					{
						OFFSET -5.34813 0.0 0.0
						CHANNELS 6 Xposition Yposition Zposition Zrotation Xrotation Yrotation 
						JOINT LowerArm_R
						{
							OFFSET -24.3289 0.000322201 0.0
							CHANNELS 6 Xposition Yposition Zposition Zrotation Xrotation Yrotation 
							JOINT Hand_R
							{
								OFFSET -22.2915 -0.000108084 0.0
								CHANNELS 6 Xposition Yposition Zposition Zrotation Xrotation Yrotation 
								End Site
								{
									OFFSET 0.0 0.0 0.0
								}
							}
						}
					}
				}
			}
		}
		JOINT UpperLeg_L
		{
			OFFSET -2.19248 -6.46944 0.0
			CHANNELS 6 Xposition Yposition Zposition Zrotation Xrotation Yrotation 
			JOINT LowerLeg_L
			{
				OFFSET 39.0811 0.0 -1.23785e-05
				CHANNELS 6 Xposition Yposition Zposition Zrotation Xrotation Yrotation 
				JOINT Foot_L
				{
					OFFSET 40.9854 0.0 -1.26872e-05
					CHANNELS 6 Xposition Yposition Zposition Zrotation Xrotation Yrotation 
					JOINT Toes_L
					{
						OFFSET 11.7543 0.0 0.0
						CHANNELS 6 Xposition Yposition Zposition Zrotation Xrotation Yrotation 
						End Site
						{
							OFFSET 0.0 0.0 0.0
						}
					}
				}
			}
		}
		JOINT UpperLeg_R
		{
			OFFSET -2.19251 6.46944 0.0
			CHANNELS 6 Xposition Yposition Zposition Zrotation Xrotation Yrotation 
			JOINT LowerLeg_R
			{
				OFFSET -39.0811 -0.00228153 -0.0401928
				CHANNELS 6 Xposition Yposition Zposition Zrotation Xrotation Yrotation 
				JOINT Foot_R
				{
					OFFSET -40.9854 0.0 0.0
					CHANNELS 6 Xposition Yposition Zposition Zrotation Xrotation Yrotation 
					JOINT Toes_R
					{
						OFFSET -11.7543 0.0 0.0
						CHANNELS 6 Xposition Yposition Zposition Zrotation Xrotation Yrotation 
						End Site
						{
							OFFSET 0.0 0.0 0.0
						}
					}
				}
			}
		}
	}
}
MOTION
Frames:	5
Frame Time:	0.0333333
0.000000 0.000000 0.000000 0.000000 0.000000 -0.000000 3.267620 90.998200 -3.522670 90.317400 -9.890610 16.471700 15.735700 0.000005 -0.000001 91.315200 78.793300 -95.465000 8.984550 -0.406207 -0.000000 14.664700 0.258284 -8.337770 16.377300 -0.000001 -0.000001 31.209800 0.927071 -4.710810 6.456720 -0.000001 -0.000000 10.888500 2.869060 -9.473700 12.994200 -0.242716 4.980390 -91.563500 5.326920 -73.616000 5.348090 -0.000007 -0.000001 -58.935300 31.379700 -16.661800 24.328600 0.000019 0.000005 11.363600 24.803900 -25.597400 22.291600 -0.000001 0.000005 11.100600 5.291490 0.309746 12.994500 -0.242716 -4.980390 90.497700 -2.130800 -76.850500 -5.348130 -0.000001 -0.000004 -74.193000 -39.303900 -84.256100 -24.328900 0.000322 -0.000009 10.714800 -0.552193 -92.917100 -22.291500 -0.000108 -0.000004 25.395500 5.418070 -3.534340 -2.192480 -6.469440 -0.000000 -175.448000 -18.989800 6.046570 39.081100 -0.000007 -0.000012 -0.052478 0.092180 29.653000 40.985400 -0.000006 -0.000013 3.734680 5.672530 -69.198600 11.754300 -0.000000 0.000003 -0.000227 -0.002059 -16.654900 -2.192510 6.469440 -0.000001 168.814000 18.707800 -174.889000 -39.081100 -0.002282 -0.040193 -0.148301 0.266149 29.666900 -40.985400 0.000008 0.000006 2.011200 19.798400 -67.414300 -11.754300 -0.000006 -0.000006 -0.003028 -0.040916 -18.237100
0.000000 0.000000 0.000000 0.000000 0.000000 -0.000000 3.293650 91.005300 -3.484610 90.276900 -10.020100 16.363700 15.735700 0.000005 -0.000001 91.200400 78.818900 -95.354800 8.984550 -0.406207 -0.000000 14.612900 0.214525 -8.341080 16.377300 -0.000001 -0.000001 30.883800 0.933342 -4.690790 6.456720 -0.000001 -0.000000 10.667100 2.902630 -9.422690 12.994200 -0.242716 4.980390 -91.567600 5.330890 -73.587800 5.348090 -0.000007 -0.000001 -58.928200 31.401100 -16.592200 24.328600 0.000019 0.000005 11.361500 24.981900 -25.444100 22.291600 -0.000001 0.000005 10.895800 5.289890 0.353930 12.994500 -0.242716 -4.980390 90.484000 -2.065770 -76.809800 -5.348130 -0.000001 -0.000004 -74.256600 -39.380000 -84.391000 -24.328900 0.000322 -0.000009 10.652800 -0.509255 -92.706700 -22.291500 -0.000108 -0.000004 25.375600 5.420270 -3.608300 -2.192480 -6.469440 -0.000000 -175.417000 -19.109900 5.993880 39.081100 -0.000007 -0.000012 -0.052147 0.091705 29.624400 40.985400 -0.000006 -0.000013 3.738680 5.644120 -69.217000 11.754300 -0.000000 0.000003 -0.000239 -0.002147 -16.658100 -2.192510 6.469440 -0.000001 168.878000 18.669500 -174.966000 -39.081100 -0.002282 -0.040193 -0.150655 0.271113 29.591200 -40.985400 0.000008 0.000006 1.992810 19.884800 -67.374600 -11.754300 -0.000006 -0.000006 -0.003121 -0.041963 -18.279700
0.000000 0.000000 0.000000 0.000000 0.000000 -0.000000 3.314470 91.019800 -3.445100 90.273200 -10.133400 16.290200 15.735700 0.000005 -0.000001 91.075800 78.846600 -95.241000 8.984550 -0.406207 -0.000000 14.556800 0.166901 -8.356390 16.377300 -0.000001 -0.000001 30.615700 0.947700 -4.702240 6.456720 -0.000001 -0.000000 10.609300 2.923280 -9.352150 12.994200 -0.242716 4.980390 -91.565600 5.317980 -73.569200 5.348090 -0.000007 -0.000001 -59.027700 31.373800 -16.489000 24.328600 0.000019 0.000005 11.299600 25.234200 -25.111900 22.291600 -0.000001 0.000005 10.915200 5.291240 0.316726 12.994500 -0.242716 -4.980390 90.465700 -1.990000 -76.826600 -5.348130 -0.000001 -0.000004 -74.390100 -39.427400 -84.491700 -24.328900 0.000322 -0.000009 10.641400 -0.481193 -92.560700 -22.291500 -0.000108 -0.000004 25.335200 5.421580 -3.652450 -2.192480 -6.469440 -0.000000 -175.447000 -19.134800 6.009460 39.081100 -0.000007 -0.000012 -0.051359 0.090691 29.523500 40.985400 -0.000006 -0.000013 3.732830 5.586560 -69.209500 11.754300 -0.000000 0.000003 -0.000225 -0.002042 -16.654300 -2.192510 6.469440 -0.000001 168.901000 18.639700 -174.993000 -39.081100 -0.002282 -0.040193 -0.145484 0.262985 29.499700 -40.985400 0.000008 0.000006 1.976660 19.952400 -67.338800 -11.754300 -0.000006 -0.000006 -0.002902 -0.039485 -18.178900
0.000000 0.000000 0.000000 0.000000 0.000000 -0.000000 3.334920 91.010300 -3.396100 90.231300 -10.252000 16.256300 15.735700 0.000005 -0.000001 91.068700 78.863000 -95.225500 8.984550 -0.406207 -0.000000 14.523800 0.165271 -8.339150 16.377300 -0.000001 -0.000001 30.483600 0.923996 -4.701520 6.456720 -0.000001 -0.000000 10.700500 2.892030 -9.330720 12.994200 -0.242716 4.980390 -91.564000 5.314670 -73.575900 5.348090 -0.000007 -0.000001 -59.107900 31.357000 -16.362000 24.328600 0.000019 0.000005 11.246700 25.418400 -24.857300 22.291600 -0.000001 0.000005 10.933700 5.287150 0.429714 12.994500 -0.242716 -4.980390 90.454800 -1.941320 -76.812100 -5.348130 -0.000001 -0.000004 -74.455200 -39.428800 -84.456000 -24.328900 0.000322 -0.000009 10.555000 -0.463040 -92.484900 -22.291500 -0.000108 -0.000004 25.328300 5.420850 -3.627720 -2.192480 -6.469440 -0.000000 -175.376000 -19.252500 6.009300 39.081100 -0.000007 -0.000012 -0.052948 0.093287 29.578700 40.985400 -0.000006 -0.000013 3.746110 5.597160 -69.283300 11.754300 -0.000000 0.000003 -0.000235 -0.002117 -16.657000 -2.192510 6.469440 -0.000001 168.939000 18.577900 -175.017000 -39.081100 -0.002282 -0.040193 -0.150437 0.271668 29.506100 -40.985400 0.000008 0.000006 1.970790 20.019700 -67.359500 -11.754300 -0.000006 -0.000006 -0.003125 -0.042009 -18.281600
0.000000 0.000000 0.000000 0.000000 0.000000 -0.000000 3.356510 91.001300 -3.341440 90.224200 -10.362500 16.315800 15.735700 0.000005 -0.000001 90.999000 78.849200 -95.148700 8.984550 -0.406207 -0.000000 14.550800 0.138459 -8.321500 16.377300 -0.000001 -0.000001 30.504200 0.928515 -4.739940 6.456720 -0.000001 -0.000000 10.919000 2.826700 -9.386230 12.994200 -0.242716 4.980390 -91.559100 5.292030 -73.558900 5.348090 -0.000007 -0.000001 -59.229200 31.337000 -16.231400 24.328600 0.000019 0.000005 11.195900 25.605100 -24.607600 22.291600 -0.000001 0.000005 11.055200 5.285960 0.462587 12.994500 -0.242716 -4.980390 90.458900 -1.964420 -76.849300 -5.348130 -0.000001 -0.000004 -74.575800 -39.398000 -84.424400 -24.328900 0.000322 -0.000009 10.634800 -0.455008 -92.423100 -22.291500 -0.000108 -0.000004 25.209600 5.420320 -3.609960 -2.192480 -6.469440 -0.000000 -175.340000 -19.316400 6.110300 39.081100 -0.000007 -0.000012 -0.052925 0.093158 29.601800 40.985400 -0.000006 -0.000013 3.740440 5.520350 -69.338800 11.754300 -0.000000 0.000003 -0.000229 -0.002077 -16.655600 -2.192510 6.469440 -0.000001 168.920000 18.504500 -174.955000 -39.081100 -0.002282 -0.040193 -0.148710 0.268352 29.530400 -40.985400 0.000008 0.000006 1.964250 20.056200 -67.390900 -11.754300 -0.000006 -0.000006 -0.002994 -0.040529 -18.221400
